<svg width="254" height="254" viewBox="0 0 254 254" fill="none" xmlns="http://www.w3.org/2000/svg">
<g clip-path="url(#clip0_10_15)">
<path d="M127.245 0C57.221 0 0.428982 56.632 0.156982 126.593L0.176025 126.588L93.6591 80.122C93.1273 79.7674 92.6291 79.3647 92.171 78.919C92.0207 78.7729 91.9051 78.5951 91.8324 78.3986C91.7597 78.202 91.7318 77.9917 91.751 77.783C91.789 77.361 92.017 76.978 92.369 76.738C100.083 71.5325 107.206 65.5001 113.61 58.748C114.758 57.5368 115.939 56.3577 117.152 55.212C117.157 55.206 117.169 55.201 117.173 55.195C118.548 53.8961 120.251 52.9959 122.099 52.591C128.089 51.262 142.238 47.986 151.482 44.761C155.32 43.4136 159.467 43.2066 163.42 44.165C163.983 44.3 164.539 44.46 165.102 44.612L196.317 29.098C196.425 29.044 196.544 29.0185 196.665 29.0239C196.785 29.0293 196.902 29.0654 197.004 29.1288C197.107 29.1921 197.191 29.2807 197.249 29.3859C197.308 29.4912 197.338 29.6096 197.338 29.73V39.769C197.337 39.9054 197.298 40.0387 197.223 40.1531C197.149 40.2674 197.043 40.358 196.919 40.414L177.26 49.27C180.063 50.6979 182.754 52.3373 185.308 54.174L199.986 48.092C200.116 48.0386 200.258 48.0248 200.395 48.0522C200.533 48.0796 200.659 48.1471 200.758 48.246L207.763 55.251C207.847 55.3345 207.909 55.4381 207.942 55.5521C207.975 55.666 207.978 55.7865 207.951 55.902C207.927 56.0173 207.874 56.1246 207.797 56.2138C207.72 56.303 207.621 56.3712 207.511 56.412L193.854 61.476C202.795 70.597 208.047 81.907 209.851 89.61C217.722 119.779 208.896 187.038 168.939 247.147V247.153C168.939 247.159 168.939 247.165 168.933 247.171C218.649 229.917 254.335 182.675 254.335 127.088C254.333 56.9 197.43 0 127.245 0ZM173.79 120.308C164.893 114.323 156.683 107.374 149.311 99.587C148.322 98.5423 147.131 97.7101 145.81 97.1412C144.489 96.5723 143.065 96.2786 141.627 96.278H114.307C111.161 96.278 108.123 95.569 105.366 94.287L0.320068 133.241L0.304077 133.243C2.49908 179.237 29.141 218.817 67.515 239.288C67.521 239.284 67.526 239.278 67.526 239.272C121.93 225.909 164.524 182.543 176.749 127.708C177.058 126.32 176.941 124.871 176.413 123.551C175.885 122.231 174.971 121.1 173.79 120.308ZM123.864 82.242H134.837C135.468 82.2419 136.081 82.0323 136.58 81.646C137.08 81.2598 137.436 80.7189 137.595 80.108C138.207 77.7654 138.207 75.3046 137.595 72.962C137.437 72.3496 137.079 71.8072 136.579 71.4203C136.078 71.0334 135.464 70.824 134.831 70.825H129.42L129.402 70.833H120.681C119.709 70.8323 118.771 71.1915 118.047 71.8415C117.324 72.4915 116.868 73.3862 116.765 74.353C116.759 74.353 116.759 74.356 116.759 74.358C116.614 75.704 117.102 77.505 118.133 79.364C118.265 79.54 118.404 79.717 118.552 79.883C119.223 80.6259 120.043 81.2198 120.958 81.6261C121.873 82.0325 122.863 82.2423 123.864 82.242Z" fill="#ED1B34"/>
<path d="M161.025 70.833C166.051 70.833 171.037 69.937 175.753 68.191L207.509 56.414C207.62 56.3728 207.719 56.3046 207.797 56.2155C207.875 56.1265 207.929 56.0194 207.955 55.904C207.98 55.7881 207.976 55.6678 207.942 55.554C207.908 55.4403 207.847 55.3368 207.763 55.253L200.758 48.248C200.66 48.1491 200.534 48.0816 200.397 48.0541C200.261 48.0267 200.119 48.0406 199.99 48.094L145.162 70.833H161.025Z" fill="black"/>
<path d="M209.784 89.325C210.385 91.81 210.551 94.138 210.076 96.981C207.813 107.887 195.331 113.132 185.975 107.158C180.182 103.462 174.701 99.2983 169.587 94.709C165.934 91.4384 161.258 89.5375 156.359 89.331L132.806 88.332C122.374 87.896 116.302 78.726 116.765 74.36V74.355C116.869 73.3878 117.328 72.4933 118.052 71.8436C118.776 71.1938 119.714 70.8346 120.687 70.835H129.402L196.923 40.417C197.047 40.3608 197.152 40.27 197.225 40.1556C197.299 40.0412 197.337 39.908 197.337 39.772V29.733C197.337 29.6129 197.306 29.4948 197.249 29.3896C197.191 29.2844 197.107 29.1954 197.006 29.131C196.903 29.0683 196.786 29.0327 196.665 29.0275C196.545 29.0222 196.425 29.0475 196.317 29.101L0.181023 126.59C0.181023 127.887 0.163982 128.278 0.213982 130.181C0.240982 131.253 0.29699 132.712 0.32299 133.242L105.37 94.288C108.169 95.5965 111.22 96.2761 114.309 96.279H141.624C144.53 96.279 147.31 97.479 149.312 99.588C156.682 107.376 164.89 114.325 173.787 120.309C174.968 121.101 175.882 122.231 176.41 123.551C176.937 124.872 177.054 126.32 176.744 127.708C164.519 182.543 121.931 225.909 67.527 239.272C85.328 248.772 105.66 254.161 127.244 254.161C141.849 254.161 155.876 251.688 168.938 247.155V247.149C209.019 186.854 217.779 119.359 209.784 89.325Z" fill="black"/>
<path d="M165.101 44.613L93.659 80.124C93.1281 79.7675 92.6301 79.3642 92.171 78.919C92.0209 78.7729 91.9054 78.595 91.8329 78.3985C91.7604 78.2019 91.7328 77.9916 91.7521 77.783C91.7901 77.361 92.017 76.978 92.37 76.738C100.085 71.5338 107.207 65.5013 113.61 58.748C114.761 57.5383 115.944 56.3592 117.157 55.212L117.175 55.195C118.552 53.8986 120.254 52.9988 122.101 52.591C128.091 51.262 142.24 47.986 151.49 44.761C155.327 43.4136 159.471 43.2066 163.423 44.165C163.987 44.301 164.545 44.461 165.101 44.613ZM209.775 89.298C209.379 87.676 208.799 85.988 208.087 84.049L208.098 84.047C205.002 75.5986 200.141 67.9069 193.839 61.484L175.752 68.192C171.038 69.9384 166.05 70.833 161.023 70.834H145.16L185.3 54.185C182.745 52.3456 180.052 50.7051 177.246 49.278L129.4 70.834H134.834C136.137 70.834 137.268 71.708 137.599 72.969C137.891 74.111 138.051 75.307 138.051 76.543C138.051 77.776 137.891 78.973 137.599 80.115C137.438 80.7262 137.08 81.2671 136.58 81.6533C136.08 82.0395 135.466 82.2493 134.834 82.25H123.868C122.753 82.2515 121.653 81.9915 120.657 81.491C119.661 80.9905 118.795 80.2633 118.131 79.368C121.06 84.52 126.492 88.067 132.804 88.331L156.357 89.33C161.256 89.5369 165.931 91.4377 169.584 94.708C174.699 99.2973 180.18 103.461 185.973 107.157C195.327 113.131 207.811 107.886 210.073 96.98C210.548 94.127 210.382 91.794 209.775 89.298Z" fill="white"/>
</g>
<defs>
<clipPath id="clip0_10_15">
<rect width="254" height="254" fill="white"/>
</clipPath>
</defs>
</svg>
