<svg width="19" height="25" viewBox="0 0 19 25" fill="none" xmlns="http://www.w3.org/2000/svg">
<g clip-path="url(#clip0_1_1390)">
<path d="M12.2026 10.5825C12.2026 9.83657 11.9063 9.1212 11.3789 8.59375C10.8514 8.06631 10.1361 7.76999 9.39014 7.76999C8.64422 7.76999 7.92884 8.06631 7.4014 8.59375C6.87395 9.1212 6.57764 9.83657 6.57764 10.5825C6.57764 11.3284 6.87395 12.0438 7.4014 12.5712C7.92884 13.0987 8.64422 13.395 9.39014 13.395C10.1361 13.395 10.8514 13.0987 11.3789 12.5712C11.9063 12.0438 12.2026 11.3284 12.2026 10.5825Z" stroke="white" stroke-width="1.125" stroke-linecap="round" stroke-linejoin="round"/>
<path d="M9.39014 22.9575C8.82764 22.9575 1.51514 16.5844 1.51514 10.5825C1.51514 5.88336 4.72926 2.14499 9.39014 2.14499C14.0499 2.14499 17.2651 5.88336 17.2651 10.5825C17.2651 16.5844 9.95264 22.9575 9.39014 22.9575Z" stroke="white" stroke-width="1.125" stroke-linecap="round" stroke-linejoin="round"/>
</g>
<defs>
<clipPath id="clip0_1_1390">
<rect width="18" height="24" fill="white" transform="translate(0.390137 0.269989)"/>
</clipPath>
</defs>
</svg>
