<svg width="170" height="38" viewBox="0 0 170 38" fill="none" xmlns="http://www.w3.org/2000/svg">
<g clip-path="url(#clip0_1_247)">
<g clip-path="url(#clip1_1_247)">
<path d="M155 4.89081C146.735 4.89081 140.032 11.575 140 19.8323L140.002 19.8318L151.036 14.3475C150.973 14.3056 150.914 14.2581 150.86 14.2055C150.842 14.1882 150.829 14.1672 150.82 14.144C150.812 14.1208 150.808 14.096 150.811 14.0714C150.815 14.0216 150.842 13.9764 150.884 13.9481C151.794 13.3337 152.635 12.6217 153.391 11.8247C153.526 11.6818 153.665 11.5426 153.809 11.4074C153.809 11.4067 153.811 11.4061 153.811 11.4054C153.973 11.2521 154.174 11.1458 154.393 11.098C155.1 10.9412 156.77 10.5545 157.861 10.1739C158.314 10.0148 158.803 9.9904 159.27 10.1035C159.336 10.1195 159.402 10.1383 159.468 10.1563L163.152 8.32519C163.165 8.31882 163.179 8.31581 163.193 8.31645C163.208 8.31708 163.221 8.32134 163.233 8.32882C163.246 8.3363 163.255 8.34675 163.262 8.35917C163.269 8.3716 163.273 8.38558 163.273 8.39979V9.58467C163.273 9.60077 163.268 9.6165 163.259 9.63C163.251 9.6435 163.238 9.65419 163.223 9.6608L160.903 10.7061C161.234 10.8746 161.552 11.0681 161.853 11.2849L163.585 10.567C163.601 10.5607 163.618 10.5591 163.634 10.5623C163.65 10.5656 163.665 10.5735 163.677 10.5852L164.503 11.412C164.513 11.4218 164.521 11.4341 164.524 11.4475C164.528 11.461 164.529 11.4752 164.525 11.4888C164.523 11.5024 164.516 11.5151 164.507 11.5256C164.498 11.5361 164.487 11.5442 164.474 11.549L162.862 12.1467C163.917 13.2232 164.537 14.5581 164.75 15.4673C165.679 19.0281 164.637 26.9666 159.921 34.0611V34.0618C159.921 34.0625 159.921 34.0632 159.92 34.064C165.788 32.0275 170 26.4516 170 19.8908C170 11.6066 163.284 4.89081 155 4.89081ZM160.494 19.0905C159.443 18.3841 158.474 17.564 157.604 16.6449C157.488 16.5216 157.347 16.4234 157.191 16.3562C157.035 16.2891 156.867 16.2544 156.697 16.2543H153.473C153.102 16.2543 152.743 16.1706 152.418 16.0193L140.019 20.617L140.017 20.6172C140.276 26.0458 143.421 30.7174 147.95 33.1335C147.951 33.1331 147.951 33.1324 147.951 33.1316C154.373 31.5544 159.4 26.436 160.843 19.964C160.879 19.8001 160.865 19.6291 160.803 19.4733C160.741 19.3175 160.633 19.1841 160.494 19.0905ZM154.601 14.5977H155.896C155.97 14.5977 156.043 14.5729 156.102 14.5273C156.161 14.4818 156.203 14.4179 156.221 14.3458C156.294 14.0693 156.294 13.7789 156.221 13.5024C156.203 13.4301 156.161 13.3661 156.102 13.3204C156.043 13.2748 155.97 13.25 155.895 13.2502H155.257L155.254 13.2511H154.225C154.11 13.251 154 13.2934 153.914 13.3701C153.829 13.4468 153.775 13.5524 153.763 13.6666C153.762 13.6666 153.762 13.6669 153.762 13.6671C153.745 13.826 153.803 14.0386 153.924 14.258C153.94 14.2788 153.956 14.2997 153.974 14.3193C154.053 14.4069 154.15 14.477 154.258 14.525C154.366 14.573 154.483 14.5977 154.601 14.5977Z" fill="#ED1B34"/>
<path d="M103.194 25.6284V14.8894L100.154 15.4181V30.1538H103.194L110.463 19.3718V30.1538H113.502V15.0216L110.044 15.4624L103.194 25.6284ZM51.454 17.8412H56.3005V30.1538H59.3839V17.8412H64.0315L64.9123 15.1537H51.454V17.8412ZM122.644 15.1537C119.89 15.1537 117.203 16.8276 117.203 20.1758C117.203 21.9818 118.018 23.3255 119.252 24.1406C119.49 24.291 119.985 24.5624 120.778 24.7689C119.012 27.1922 117.283 27.7579 116.411 27.9949L117.225 30.4401C120.527 30.206 122.373 27.6485 123.947 25.0438H126.917V30.1538H130V15.1537H122.644ZM126.917 22.5763H122.511C121.454 22.5763 120.265 21.8497 120.243 20.1759C120.243 18.59 121.256 17.8191 122.511 17.8191H126.917V22.5763ZM27.7595 22.2421L32.6866 15.4624L29.6469 14.8894L25.1099 21.211H22.951V14.8894L19.8677 15.4403V30.1538H22.951V23.9642H25.3299C26.7838 26.6519 29.0525 30.3294 32.3123 30.4179L33.1932 27.7309C32.8188 27.6204 32.4887 27.4881 32.158 27.3347C29.9999 26.2443 28.7953 24.1185 27.7595 22.2421ZM72.5996 14.8015C67.8419 14.8015 65.1107 17.8848 65.1107 22.0475V23.2155C65.1107 27.4004 67.842 30.5065 72.5996 30.5065C77.2689 30.5065 80.0227 27.4004 80.0227 23.2155V22.0475C80.0227 17.8849 77.2689 14.8015 72.5996 14.8015ZM76.851 23.2155C76.851 25.6166 75.7053 27.5988 72.5997 27.5988C69.4278 27.5988 68.2827 25.6166 68.2827 23.2155V22.0475C68.2827 19.625 69.4279 17.6426 72.5997 17.6426C75.7053 17.6426 76.851 19.625 76.851 22.0475V23.2155ZM38.7446 25.6291V14.8894L35.7049 15.4181V30.1538H38.7446L46.0134 19.3718V30.1538H49.0531V15.0216L45.5947 15.4624L38.7446 25.6291Z" fill="white"/>
<path d="M158.987 13.2511C159.58 13.2511 160.169 13.1454 160.725 12.9393L164.473 11.5493C164.486 11.5444 164.498 11.5363 164.507 11.5258C164.516 11.5153 164.523 11.5027 164.526 11.4891C164.529 11.4754 164.528 11.4612 164.524 11.4478C164.52 11.4343 164.513 11.4221 164.503 11.4122L163.677 10.5854C163.665 10.5738 163.65 10.5658 163.634 10.5626C163.618 10.5593 163.601 10.561 163.586 10.5673L157.115 13.2511H158.987Z" fill="black"/>
<path d="M7.02598 10.6824C3.01762 10.6824 0.220117 13.4577 0.198046 17.0698C0.198046 20.088 2.3569 22.7533 5.39648 23.2598C3.9864 25.3738 2.31252 27.0703 -0.00012207 27.6866L0.90291 30.4179C4.757 30.2859 7.00367 26.5631 8.92045 23.4577H12.5545V30.1538H15.6828V10.6824H7.02598ZM12.5547 20.5281H7.02598C5.06577 20.5281 3.58982 19.1408 3.58982 17.0698C3.58982 14.9559 5.06577 13.6342 7.02598 13.6342H12.5547V20.5281ZM90.4186 14.8672C88.8105 14.8672 86.8509 15.6159 85.9036 16.7617V15.1537H83.0183V34.8892H86.1017V29.1406C87.1154 30.3959 89.0536 30.5724 90.4186 30.5724C94.3176 30.5724 97.0265 28.4355 97.0265 23.2377V22.1582C97.0265 16.7839 94.0089 14.8672 90.4186 14.8672ZM93.9646 23.2155C93.9646 24.9772 93.4581 27.7309 90.4184 27.7309C88.8989 27.7309 86.8508 27.2904 86.1014 25.9242V19.867C86.8946 18.7662 88.3481 17.6646 90.4184 17.6646C93.194 17.6646 93.9646 19.9992 93.9646 22.1581V23.2155Z" fill="white"/>
<path d="M164.742 15.4337C164.813 15.727 164.832 16.0017 164.776 16.3373C164.509 17.6245 163.036 18.2436 161.932 17.5385C161.248 17.1022 160.601 16.6108 159.997 16.0691C159.566 15.6831 159.014 15.4587 158.436 15.4344L155.656 15.3165C154.425 15.265 153.708 14.1827 153.763 13.6674V13.6668C153.775 13.5526 153.829 13.4471 153.915 13.3704C154 13.2937 154.111 13.2513 154.226 13.2513H155.254L163.224 9.66114C163.238 9.6545 163.251 9.64379 163.26 9.63028C163.268 9.61678 163.273 9.60106 163.273 9.58501V8.40013C163.273 8.38596 163.269 8.37201 163.262 8.35959C163.255 8.34717 163.246 8.33668 163.234 8.32907C163.222 8.32167 163.208 8.31747 163.193 8.31685C163.179 8.31623 163.165 8.31922 163.152 8.32553L140.003 19.832C140.003 19.9851 140.001 20.0312 140.007 20.2558C140.01 20.3823 140.016 20.5546 140.02 20.6171L152.418 16.0194C152.748 16.1739 153.108 16.2541 153.473 16.2544H156.697C157.04 16.2544 157.368 16.3961 157.604 16.645C158.474 17.5642 159.443 18.3844 160.493 19.0906C160.633 19.1841 160.74 19.3175 160.803 19.4733C160.865 19.6292 160.879 19.8002 160.842 19.9639C159.399 26.436 154.373 31.5544 147.951 33.1316C150.053 34.2529 152.452 34.889 155 34.889C156.724 34.889 158.379 34.5971 159.921 34.062V34.0613C164.652 26.9448 165.685 18.9785 164.742 15.4337Z" fill="black"/>
<path d="M159.468 10.1564L151.036 14.3477C150.973 14.3056 150.914 14.258 150.86 14.2055C150.842 14.1882 150.829 14.1672 150.82 14.144C150.812 14.1208 150.808 14.096 150.811 14.0714C150.815 14.0216 150.842 13.9764 150.884 13.9481C151.794 13.3338 152.635 12.6218 153.391 11.8247C153.526 11.6819 153.666 11.5428 153.809 11.4074L153.811 11.4054C153.974 11.2524 154.175 11.1462 154.393 11.098C155.1 10.9412 156.77 10.5545 157.862 10.1739C158.314 10.0148 158.804 9.99039 159.27 10.1035C159.337 10.1196 159.402 10.1385 159.468 10.1564ZM164.741 15.4305C164.694 15.239 164.626 15.0398 164.542 14.811L164.543 14.8107C164.177 13.8136 163.604 12.9057 162.86 12.1476L160.725 12.9394C160.169 13.1455 159.58 13.2511 158.987 13.2512H157.114L161.852 11.2862C161.55 11.0691 161.233 10.8754 160.901 10.707L155.254 13.2512H155.896C156.049 13.2512 156.183 13.3544 156.222 13.5032C156.256 13.638 156.275 13.7792 156.275 13.925C156.275 14.0706 156.256 14.2118 156.222 14.3466C156.203 14.4188 156.161 14.4826 156.102 14.5282C156.043 14.5738 155.97 14.5985 155.896 14.5986H154.601C154.47 14.5988 154.34 14.5681 154.222 14.509C154.105 14.45 154.003 14.3641 153.924 14.2585C154.27 14.8665 154.911 15.2852 155.656 15.3164L158.436 15.4343C159.014 15.4587 159.566 15.683 159.997 16.069C160.601 16.6107 161.248 17.1021 161.931 17.5384C163.036 18.2435 164.509 17.6244 164.776 16.3372C164.832 16.0004 164.812 15.7251 164.741 15.4305Z" fill="white"/>
</g>
</g>
<defs>
<clipPath id="clip0_1_247">
<rect width="170" height="36" fill="white" transform="translate(0 1.89001)"/>
</clipPath>
<clipPath id="clip1_1_247">
<rect width="170" height="29.9984" fill="white" transform="translate(0 4.89081)"/>
</clipPath>
</defs>
</svg>
