<svg width="22" height="22" viewBox="0 0 22 22" fill="none" xmlns="http://www.w3.org/2000/svg">
<g clip-path="url(#clip0_1_1193)">
<path d="M11 22C4.925 22 0 17.075 0 11C0 4.925 4.925 0 11 0C17.075 0 22 4.925 22 11C22 17.075 17.075 22 11 22ZM11 1C5.477 1 1 5.477 1 11C1 16.523 5.477 21 11 21C16.523 21 21 16.523 21 11C21 5.477 16.523 1 11 1ZM15.646 16.354L11 11.707L6.354 16.354L5.646 15.646L10.293 11L5.646 6.353L6.354 5.646L11 10.293L15.646 5.646L16.353 6.353L11.707 11L16.353 15.646L15.646 16.354Z" fill="#44474A"/>
</g>
<defs>
<clipPath id="clip0_1_1193">
<rect width="22" height="22" fill="white"/>
</clipPath>
</defs>
</svg>
