<svg width="17" height="15" viewBox="0 0 17 15" fill="none" xmlns="http://www.w3.org/2000/svg">
<path d="M15.0103 0.697483L1.16457 6.12407C1.16457 6.12407 0.505934 6.35317 0.548888 6.76839C0.591843 7.18362 1.13593 7.36976 1.13593 7.36976L4.62957 8.54385L12.9914 3.2318C12.9914 3.2318 13.4782 2.93112 13.4639 3.2318C13.4639 3.2318 13.5498 3.2318 13.2921 3.51816L6.72002 9.43157V9.50317L8.89639 11.207L12.4043 13.8988C12.5178 13.9614 12.6431 13.9996 12.7722 14.011C12.9012 14.0223 13.0313 14.0066 13.1539 13.9649C13.2766 13.9231 13.3891 13.8561 13.4844 13.7683C13.5797 13.6805 13.6556 13.5738 13.7073 13.455L16.2273 1.0268C16.2273 0.196347 15.0103 0.697483 15.0103 0.697483Z" fill="white"/>
</svg>
