<svg width="23" height="14" viewBox="0 0 23 14" fill="none" xmlns="http://www.w3.org/2000/svg">
<g clip-path="url(#clip0_1_233)">
<path d="M20.435 10.1407C19.988 9.60769 19.479 9.13169 18.987 8.66969C18.812 8.50569 18.631 8.33669 18.457 8.16769C17.956 7.68269 17.938 7.50069 18.335 6.95069C18.609 6.57069 18.899 6.19069 19.181 5.82369C19.436 5.49069 19.699 5.14569 19.952 4.79969L20.004 4.72869C20.487 4.06669 20.987 3.38169 21.253 2.55569C21.322 2.33869 21.394 2.01769 21.228 1.74969C21.063 1.48169 20.741 1.39969 20.514 1.36169C20.402 1.34269 20.29 1.34069 20.186 1.34069L17.023 1.33769H16.997C16.518 1.33769 16.196 1.56069 16.011 2.02069C15.835 2.45969 15.641 2.92669 15.42 3.37069C14.98 4.25569 14.422 5.27469 13.613 6.12469L13.579 6.16069C13.484 6.26269 13.375 6.37769 13.296 6.37769C13.284 6.37769 13.271 6.37469 13.256 6.37069C13.088 6.30569 12.976 5.90469 12.981 5.71769C12.981 5.71469 12.981 5.71269 12.981 5.70969L12.979 2.08869C12.979 2.07569 12.978 2.06369 12.977 2.05169C12.896 1.46269 12.718 1.09669 12.044 0.965693C12.027 0.961693 12.008 0.960693 11.99 0.960693H8.70101C8.16501 0.960693 7.86901 1.17569 7.59201 1.49969C7.51701 1.58569 7.36101 1.76469 7.43801 1.98369C7.51701 2.20469 7.77101 2.25169 7.85401 2.26669C8.26601 2.34469 8.49801 2.59369 8.56301 3.02869C8.67801 3.78569 8.69201 4.59369 8.60801 5.56969C8.58401 5.84169 8.53801 6.05069 8.46101 6.23069C8.44301 6.27269 8.38001 6.40869 8.31501 6.40869C8.29501 6.40869 8.23501 6.40069 8.12801 6.32769C7.87201 6.15369 7.68601 5.90769 7.46801 5.60169C6.72801 4.56569 6.10601 3.42369 5.56801 2.11069C5.36801 1.62769 4.99601 1.35769 4.51801 1.34869C3.99301 1.34169 3.51701 1.33769 3.06301 1.33769C2.56701 1.33769 2.10701 1.34169 1.65801 1.35069C1.27401 1.35769 1.00801 1.47269 0.868006 1.69069C0.728006 1.90969 0.737006 2.19669 0.895006 2.54469C2.16101 5.33069 3.30901 7.35769 4.61601 9.11469C5.53301 10.3437 6.45201 11.1957 7.50901 11.7927C8.62201 12.4237 9.87001 12.7297 11.323 12.7297C11.488 12.7297 11.658 12.7257 11.83 12.7177C12.675 12.6777 12.988 12.3747 13.027 11.5607C13.046 11.1447 13.092 10.7087 13.299 10.3357C13.429 10.1007 13.551 10.1007 13.591 10.1007C13.668 10.1007 13.763 10.1367 13.866 10.2017C14.049 10.3207 14.207 10.4797 14.336 10.6197C14.458 10.7507 14.578 10.8847 14.699 11.0187C14.958 11.3057 15.227 11.6047 15.507 11.8867C16.122 12.5047 16.798 12.7777 17.575 12.7187H20.476C20.482 12.7187 20.488 12.7177 20.494 12.7177C20.783 12.6987 21.034 12.5397 21.181 12.2827C21.363 11.9627 21.36 11.5547 21.171 11.1917C20.957 10.7807 20.679 10.4297 20.435 10.1407Z" fill="white"/>
</g>
<defs>
<clipPath id="clip0_1_233">
<rect width="22" height="13" fill="white" transform="translate(0.109985 0.499756)"/>
</clipPath>
</defs>
</svg>
