<svg width="21" height="25" viewBox="0 0 21 25" fill="none" xmlns="http://www.w3.org/2000/svg">
<g clip-path="url(#clip0_1_285)">
<path d="M20.5541 24.067L19.3301 5.91501C19.3031 5.51601 18.9621 5.20601 18.5511 5.20601H15.1351V4.71701C15.1351 2.62301 13.3841 0.920013 11.2311 0.920013H9.88807C7.73607 0.920013 5.98407 2.62301 5.98407 4.71701V5.20601H2.56807C2.15707 5.20601 1.81607 5.51601 1.78907 5.91501L0.562067 24.111C0.548067 24.32 0.624067 24.526 0.772067 24.68C0.919067 24.833 1.12607 24.92 1.34207 24.92H19.7781C20.2091 24.92 20.5601 24.58 20.5601 24.16C20.5601 24.129 20.5581 24.097 20.5541 24.067ZM7.54607 4.71701C7.54607 3.46101 8.59707 2.43901 9.88807 2.43901H11.2311C12.5231 2.43901 13.5731 3.46101 13.5731 4.71701V5.20601H7.54607V4.71701ZM2.17507 23.401L3.30007 6.72501H5.98407V7.40201C5.42907 7.67901 5.04707 8.24201 5.04707 8.89001C5.04707 9.81101 5.81807 10.561 6.76507 10.561C7.71207 10.561 8.48307 9.81101 8.48307 8.89001C8.48307 8.24201 8.10207 7.67901 7.54607 7.40201V6.72501H13.5731V7.40201C13.0181 7.67901 12.6361 8.24201 12.6361 8.89001C12.6361 9.81101 13.4071 10.561 14.3541 10.561C15.3011 10.561 16.0721 9.81101 16.0721 8.89001C16.0721 8.24201 15.6911 7.67901 15.1351 7.40201V6.72501H17.8201L18.9441 23.401H2.17507Z" fill="black"/>
</g>
<defs>
<clipPath id="clip0_1_285">
<rect width="20" height="24" fill="white" transform="translate(0.560059 0.920013)"/>
</clipPath>
</defs>
</svg>
