<svg width="19" height="25" viewBox="0 0 19 25" fill="none" xmlns="http://www.w3.org/2000/svg">
<g clip-path="url(#clip0_1_279)">
<path d="M17.11 23.8C15.954 24.944 13.456 24.8 11.711 24.8H6.50897C4.80197 24.8 2.25797 24.9 1.10997 23.8C-0.116035 22.626 0.109965 20.195 0.109965 18.362V9.85599C0.109965 9.37499 0.497965 8.98499 0.975965 8.98499H2.67497V5.44399C2.67497 2.88299 4.74597 0.799988 7.29097 0.799988H10.929C13.474 0.799988 15.545 2.88299 15.545 5.44399V8.98499H17.244C17.722 8.98499 18.11 9.37499 18.11 9.85599V18.362C18.11 20.156 18.29 22.631 17.11 23.8ZM13.814 5.44399C13.814 3.84299 12.52 2.54199 10.929 2.54199H7.29097C5.69997 2.54199 4.40597 3.84299 4.40597 5.44399V8.98499H13.814V5.44399ZM16.379 10.727H1.84097V18.362C1.84097 19.664 1.94897 22.475 3.10997 22.8C3.91297 23.025 5.22897 23.058 6.50897 23.058H11.711C13.018 23.058 14.168 23.049 15.11 22.8C16.25 22.498 16.379 19.636 16.379 18.362V10.727ZM9.97597 18.167C9.97597 18.648 9.58797 19.038 9.10997 19.038C8.63197 19.038 8.24397 18.648 8.24397 18.167V15.681C8.14097 15.537 8.07997 15.362 8.07997 15.171C8.07997 14.69 8.46697 14.3 8.94597 14.3H9.27396C9.75296 14.3 10.14 14.69 10.14 15.171C10.14 15.362 10.079 15.537 9.97597 15.681V18.167Z" fill="black"/>
</g>
<defs>
<clipPath id="clip0_1_279">
<rect width="18" height="24" fill="white" transform="translate(0.109985 0.799988)"/>
</clipPath>
</defs>
</svg>
